<svg width="1440" height="459" viewBox="0 0 1440 459" fill="none" xmlns="http://www.w3.org/2000/svg">
<path d="M214.008 -176.544C216.551 -179.977 217.398 -183.839 216.975 -188.131C216.127 -192.422 214.008 -195.855 210.618 -198.001L201.719 -203.579C200.447 -204.438 199.6 -206.154 199.6 -207.871L200.871 -218.599C201.295 -222.89 200.447 -226.752 197.481 -230.185C194.938 -233.189 191.124 -235.335 186.886 -235.335L177.14 -235.764C175.444 -235.764 174.173 -237.052 173.325 -238.339L169.511 -248.209C167.816 -252.071 164.85 -255.075 161.036 -256.362C157.222 -257.65 152.984 -257.65 149.17 -255.504L139.847 -250.784C138.576 -249.925 136.457 -250.355 135.185 -251.213L126.71 -257.65C123.32 -260.225 119.506 -261.083 115.268 -260.654C111.03 -259.796 107.64 -257.65 105.521 -254.217L100.012 -245.205C99.1642 -243.918 97.4691 -243.059 95.774 -243.059L85.1795 -244.776C81.3655 -245.205 77.1277 -244.347 73.7375 -241.343C70.7711 -238.768 68.6522 -234.906 68.6522 -230.615L68.2284 -219.886C68.2284 -218.17 66.957 -216.882 65.6857 -216.024L55.9388 -212.162C52.1248 -210.445 49.1583 -207.441 47.887 -203.579C46.6157 -199.717 46.6157 -195.426 48.7346 -191.564L53.3961 -182.123C54.2437 -180.835 53.8199 -178.69 52.9723 -177.402L46.6157 -168.82C44.073 -165.387 43.2254 -161.524 43.6492 -157.233C44.4968 -152.942 46.6157 -149.509 50.0059 -147.363L58.9052 -141.784C60.1766 -140.926 61.0241 -139.21 61.0241 -137.493L59.7528 -126.765C59.329 -122.473 60.1766 -118.611 63.143 -115.178C65.6857 -112.174 69.4997 -110.029 73.7375 -110.029L84.332 -109.599C86.0271 -109.599 87.2984 -108.312 88.146 -107.025L91.96 -97.1546C93.6551 -93.2924 96.6216 -90.2885 100.436 -89.0011C101.707 -88.572 102.978 -88.1429 104.25 -88.1429C107.216 -87.7137 109.759 -88.572 112.301 -89.8594L121.624 -94.5798C122.896 -95.4381 125.015 -95.009 126.286 -94.1507L134.762 -87.7137C138.152 -85.1389 141.966 -84.2807 146.204 -84.7098C150.441 -85.5681 153.832 -87.7137 155.951 -91.1468L161.46 -100.159C162.307 -101.446 164.002 -102.304 165.697 -102.304L176.292 -101.017C180.106 -100.588 184.344 -101.446 187.734 -104.45C190.7 -107.025 192.819 -110.887 192.819 -115.178L193.243 -125.906C193.243 -127.623 194.514 -128.91 195.786 -129.769L205.533 -133.631C209.347 -135.347 212.313 -138.351 213.584 -142.213C214.856 -146.076 214.856 -150.367 212.737 -154.229L207.228 -163.241C206.38 -164.528 206.804 -166.674 207.652 -167.961L214.008 -176.544ZM206.38 -182.552L200.024 -173.969C196.21 -169.678 195.786 -163.67 198.328 -158.52L202.99 -149.08C203.414 -147.792 203.414 -146.934 202.99 -145.647C202.566 -144.359 201.719 -143.501 200.447 -143.072L190.7 -139.21C185.615 -137.064 181.801 -131.914 181.377 -126.336V-115.607C181.377 -114.32 180.954 -113.462 179.682 -112.603C178.835 -111.745 177.563 -111.316 176.292 -111.745L165.697 -113.032C160.188 -113.891 154.255 -111.316 151.289 -106.166L145.78 -97.1546C144.932 -96.2964 144.085 -95.4381 142.813 -95.009C141.542 -95.009 140.271 -95.009 139.423 -95.8672L130.948 -102.304C126.286 -105.737 120.353 -106.596 115.268 -103.592L105.945 -98.8711C104.673 -98.442 103.826 -98.0129 102.554 -98.442C101.283 -98.8712 100.436 -99.7294 100.012 -101.017L96.6215 -111.316C94.5027 -116.466 89.8411 -119.899 84.332 -120.328C83.9082 -120.328 83.9082 -120.328 83.4844 -120.328L72.8899 -120.757C71.6186 -120.757 70.771 -121.186 69.9235 -122.473C69.0759 -123.332 68.6522 -124.619 69.0759 -125.906L70.3473 -136.635C71.1948 -142.213 68.6522 -148.221 63.9906 -151.225L55.0912 -156.804C54.2437 -157.662 53.3961 -158.52 52.9723 -159.808C52.9723 -161.095 52.9723 -162.383 53.8199 -163.241L60.1766 -171.824C63.5668 -176.544 64.4144 -182.552 61.4479 -187.701L56.7864 -197.142C56.3626 -198.43 56.3626 -199.288 56.3626 -200.575C56.7863 -201.863 57.6339 -202.721 58.9052 -203.15L68.6522 -207.012C73.7375 -209.158 77.5515 -214.308 77.5515 -219.886L77.9753 -230.615C77.9753 -231.902 78.3991 -232.76 79.6704 -233.618C80.518 -234.477 81.7893 -234.906 83.0606 -234.477L93.6551 -233.189C99.1642 -232.331 105.097 -234.906 108.064 -239.626L113.573 -248.638C114.42 -249.496 115.268 -250.355 116.539 -250.784C117.81 -250.784 119.082 -250.784 119.929 -249.925L128.405 -243.489C133.067 -240.055 138.999 -239.197 144.085 -242.201L153.408 -246.922C154.679 -247.351 155.527 -247.78 156.798 -247.351C158.069 -246.922 158.917 -246.063 159.341 -244.776L163.155 -234.906C165.274 -229.756 170.359 -225.894 175.868 -225.894L186.463 -225.465C187.734 -225.465 188.582 -225.036 189.429 -223.748C190.277 -222.89 190.7 -221.603 190.277 -220.315L189.853 -209.158C189.005 -203.579 191.548 -197.571 196.21 -194.568L205.109 -188.989C205.956 -188.131 206.804 -187.272 207.228 -185.985C207.228 -184.697 207.228 -183.41 206.38 -182.552ZM95.774 -191.564C96.6215 -198.43 102.554 -204.008 109.759 -203.15C116.539 -202.292 122.048 -196.284 121.201 -188.989C120.353 -181.694 113.996 -176.544 107.216 -177.402C100.436 -178.261 94.9264 -184.268 95.774 -191.564ZM167.393 -145.217C166.545 -138.351 160.188 -132.773 153.408 -133.631C146.627 -134.489 141.118 -140.497 141.966 -147.792C142.813 -154.658 148.746 -160.237 155.951 -159.379C163.155 -158.95 168.24 -152.513 167.393 -145.217ZM163.579 -191.134L104.25 -141.355C102.978 -140.497 101.707 -140.068 100.436 -140.068C99.1642 -140.068 97.8929 -140.497 97.0453 -141.784C95.3502 -143.93 95.774 -147.363 97.8929 -149.08L157.222 -198.859C159.341 -200.575 162.731 -200.146 164.426 -198.001C166.545 -195.855 166.121 -192.422 163.579 -191.134ZM377.587 53.0415L370.383 68.0611L377.587 83.5098L361.907 80.0767L350.465 91.6633L348.346 74.9272L333.514 66.7737L347.922 59.9076L350.465 42.7423L361.907 55.6162L377.587 53.0415ZM322.072 77.9311C325.038 87.8011 328.429 95.5255 333.514 101.533C323.343 100.675 314.444 97.242 310.206 83.0807L303.849 62.9115L315.715 59.0493L322.072 77.9311ZM394.114 56.0454L388.181 36.7344L400.047 32.8723L406.404 53.0415C410.642 67.2028 405.132 75.3563 397.504 81.7933C397.504 74.0689 396.657 65.4863 394.114 56.0454ZM401.318 99.8168C420.389 88.6594 428.44 67.6319 421.66 45.7462L413.608 19.5692C412.337 15.2779 407.675 12.7031 403.014 13.9905L391.148 17.8526C389.876 13.5613 385.215 10.9866 380.553 12.274L308.087 35.0179C303.849 36.3053 301.307 41.0258 302.578 45.7462L290.712 49.6084C286.474 50.8958 283.932 55.6162 285.203 60.3367L293.255 86.9429C300.035 108.829 317.834 121.703 340.294 119.986C346.227 123.848 352.16 125.994 358.517 127.281L358.941 128.14C348.77 136.722 343.261 149.167 346.227 158.179C347.499 162.47 352.16 165.045 356.822 163.757L413.184 146.163C417.422 144.876 419.965 140.155 418.693 135.435C415.303 125.565 403.861 118.269 390.724 117.411L390.3 116.124C395.386 111.832 398.776 106.683 401.318 99.8168ZM384.367 125.565C397.504 125.136 408.523 132.002 409.794 137.151L353.431 154.746C351.736 149.596 356.822 137.58 368.264 130.714L364.45 118.269C355.974 118.699 349.194 115.695 342.413 110.545C324.191 113.12 307.663 104.537 301.307 83.9389L293.255 57.3328L313.172 50.8958L310.63 42.7423L383.096 19.9983L385.639 28.1518L405.556 21.7148L413.608 48.321C419.965 68.9193 411.065 85.6555 394.538 93.809C391.572 101.962 387.758 107.97 380.553 113.12L384.367 125.565ZM169.088 177.919L157.222 175.773C157.222 175.773 157.222 175.773 157.222 175.344C159.341 157.32 145.356 147.45 135.185 145.734C130.1 144.876 122.896 145.305 114.844 150.883C109.759 142.73 102.978 139.726 97.8929 138.868C89.4173 137.151 71.6186 139.297 66.5333 158.179C66.5333 158.179 66.5333 158.179 66.5333 158.608L54.6675 156.462C50.0059 155.604 45.7681 158.608 44.9205 163.328L41.1065 183.927C40.259 188.647 43.2254 192.938 47.887 193.797L36.445 256.021C35.5974 260.741 38.5639 265.032 43.2254 265.891L141.542 284.773C146.204 285.631 150.441 282.627 151.289 277.906L162.731 215.682C167.393 216.541 171.63 213.537 172.478 208.816L176.292 188.218C176.292 183.068 173.325 178.777 169.088 177.919ZM142.39 275.761L44.073 256.879L56.3626 190.793L83.9082 195.942L65.2619 218.257H76.2802L79.6704 227.698L102.978 199.375L108.064 200.234L119.929 235.422L126.71 228.127L136.881 231.989L127.557 204.096L155.103 209.245L142.39 275.761ZM163.579 206.671L49.1583 184.785L52.9723 164.187L75.4326 168.478C73.7375 168.049 73.7375 163.328 74.585 159.895C78.8228 143.588 96.1978 146.592 96.1978 146.592C104.673 148.309 109.759 156.462 112.301 164.616C117.81 157.75 125.015 151.742 133.914 153.458C133.914 153.458 151.289 156.891 149.17 173.627C148.746 177.061 146.627 181.352 145.356 181.352L167.816 185.643L163.579 206.671ZM139.847 173.198C139.423 175.344 138.152 177.061 134.762 177.919C131.795 178.777 127.557 178.777 122.472 177.919L114.42 176.202C119.082 168.478 125.862 161.183 131.795 162.47C133.49 162.47 141.118 164.616 139.847 173.198ZM105.097 174.915L97.0453 173.198C92.3838 171.911 88.146 170.624 85.6033 168.478C82.6369 165.903 82.2131 164.187 82.6369 162.041C84.7557 154.746 91.5362 154.746 94.5027 155.175C100.859 156.462 104.25 165.474 105.097 174.915ZM578.882 266.32L539.47 321.678C538.623 322.965 536.928 323.824 535.233 323.394C534.809 323.394 534.385 322.965 533.537 322.536C531.842 321.249 531.419 318.674 532.69 316.957L572.101 261.599C573.373 259.883 575.915 259.454 577.61 260.741C579.729 262.029 580.153 264.603 578.882 266.32ZM590.748 308.375C589.476 314.383 583.967 317.816 578.034 316.528C572.101 315.241 568.711 309.662 569.982 303.654C571.254 297.647 576.763 294.213 582.696 295.501C588.205 296.359 592.019 302.367 590.748 308.375ZM527.605 286.918C521.672 285.631 518.281 280.052 519.553 274.044C520.824 268.036 526.333 264.603 532.266 265.891C538.199 267.178 541.589 273.186 540.318 278.765C539.047 284.773 533.537 288.206 527.605 286.918ZM644.567 259.883L609.818 232.848C604.732 228.556 597.952 226.84 591.171 228.127L497.092 242.718C489.888 244.005 483.955 247.438 479.718 253.446C475.48 259.454 473.785 266.32 475.056 273.615L484.379 334.123C486.074 346.138 495.821 355.15 507.687 356.867C510.23 357.296 512.348 357.296 514.891 356.867L608.546 342.276C615.327 341.418 621.26 337.556 625.074 331.548L650.077 293.784C656.857 282.627 654.738 268.036 644.567 259.883ZM640.33 286.918L615.327 324.682C613.208 327.686 610.241 329.831 606.427 330.261L512.772 344.851C504.72 346.138 497.092 340.56 495.821 331.977L486.498 271.469C486.074 267.607 486.922 263.316 489.041 260.312C491.583 256.879 494.974 254.733 498.788 254.304L592.866 239.714C594.138 239.714 594.985 239.714 596.257 239.714C598.376 240.143 600.918 241.001 602.613 242.289L637.363 269.324C642.872 273.615 644.144 281.339 640.33 286.918ZM491.16 -182.123C491.583 -181.694 492.431 -181.694 493.278 -181.694L494.974 -141.784C494.974 -138.78 496.669 -135.776 499.635 -134.489H500.059C502.602 -133.202 505.992 -133.631 508.111 -135.347L521.248 -144.359L535.233 -136.635L535.656 -136.206C538.199 -134.918 541.165 -135.347 543.708 -136.635C546.251 -138.351 547.946 -141.355 547.946 -144.359L545.827 -198.43L552.607 -203.15C555.15 -204.867 556.421 -207.871 555.998 -210.875L555.15 -219.457L558.54 -227.182C559.812 -230.185 559.388 -233.189 557.693 -235.764L553.031 -242.63L552.184 -251.213C551.76 -254.217 550.065 -256.792 547.098 -258.079L539.47 -261.512L534.809 -268.378C533.537 -270.095 532.266 -270.953 530.995 -271.382C529.723 -271.811 528.028 -272.24 526.757 -272.24L518.281 -271.382L510.653 -274.815C507.687 -276.103 504.72 -275.673 502.178 -273.957L495.397 -269.236L486.922 -268.378C483.955 -267.949 481.413 -266.232 480.141 -263.229L476.751 -255.504L469.971 -250.784C467.428 -249.067 466.157 -246.063 466.58 -243.059L467.428 -234.477L425.474 -200.575C422.931 -198.43 422.084 -195.426 422.507 -192.422C422.931 -189.418 424.626 -187.272 427.169 -185.985C427.593 -185.985 427.593 -185.985 428.017 -185.556L442.849 -179.977L444.968 -164.099C445.391 -161.095 447.087 -158.52 450.053 -157.233H450.477C453.443 -155.946 456.41 -156.375 458.952 -158.52L489.464 -183.41C489.888 -182.981 490.736 -182.552 491.16 -182.123ZM520.4 -154.658L503.025 -142.643L501.33 -186.843L504.297 -187.272L515.315 -182.123L517.434 -183.41L525.062 -188.989L534.385 -189.847L536.928 -190.705L538.623 -144.359L520.4 -154.658ZM453.443 -165.387L450.901 -186.414L430.983 -193.709L466.58 -223.319L467.852 -220.745L473.361 -213.02L474.208 -203.579L474.632 -201.004L485.65 -195.855L487.346 -193.28L453.443 -165.387ZM479.294 -203.579L478.022 -214.737L471.666 -223.319L475.904 -233.189L475.056 -243.918L483.532 -250.355L487.769 -260.225L498.364 -261.083L506.839 -267.52L516.586 -263.229L527.605 -263.658L533.961 -255.075L543.708 -250.784L544.556 -240.055L550.912 -231.473L546.675 -221.603L547.522 -210.875L539.047 -204.438L534.809 -194.568L524.214 -193.709L515.739 -187.272L505.992 -191.564L495.397 -190.705L489.041 -199.288L479.294 -203.579ZM534.385 -216.024C540.318 -229.327 534.385 -245.205 521.248 -251.213C508.111 -257.221 492.431 -251.213 486.498 -237.91C480.565 -224.607 486.498 -208.729 499.635 -202.721C512.772 -196.713 528.452 -202.721 534.385 -216.024ZM490.312 -236.193C495.397 -247.351 508.534 -252.5 519.553 -247.351C530.571 -242.201 535.656 -228.898 530.571 -217.741C525.486 -206.583 512.348 -201.434 501.33 -206.583C490.312 -211.733 485.227 -225.036 490.312 -236.193ZM276.304 260.741C276.304 258.596 277.999 256.45 280.542 256.45C284.779 256.45 287.746 253.017 287.746 249.155C287.746 247.009 289.441 244.863 291.984 244.863C294.102 244.863 296.221 246.58 296.221 249.155C296.221 253.017 299.612 256.45 303.426 256.45C305.968 256.45 307.663 258.166 307.663 260.741C307.663 262.887 305.968 265.033 303.426 265.033C299.188 265.033 296.221 268.466 296.221 272.328C296.221 274.473 294.526 276.619 291.984 276.619C289.865 276.619 287.746 274.903 287.746 272.328C287.746 268.466 284.356 265.033 280.542 265.033C278.423 265.033 276.304 263.316 276.304 260.741ZM595.833 410.079C595.833 412.225 594.138 414.37 591.595 414.37C587.357 414.37 584.391 417.803 584.391 421.666C584.391 423.811 582.696 425.957 580.153 425.957C578.034 425.957 575.915 424.24 575.915 421.666C575.915 417.803 572.525 414.37 568.711 414.37C566.592 414.37 564.473 412.654 564.473 410.079C564.473 407.933 566.168 405.788 568.711 405.788C572.949 405.788 575.915 402.355 575.915 398.492C575.915 396.347 577.61 394.201 580.153 394.201C582.272 394.201 584.391 395.918 584.391 398.492C584.391 402.355 587.781 405.788 591.595 405.788C594.138 405.788 595.833 407.504 595.833 410.079ZM592.019 158.608C592.019 156.462 593.714 154.317 596.257 154.317C600.494 154.317 603.461 150.883 603.461 147.021C603.461 144.876 605.156 142.73 607.699 142.73C609.818 142.73 611.937 144.447 611.937 147.021C611.937 150.883 615.327 154.317 619.141 154.317C621.683 154.317 623.379 156.033 623.379 158.608C623.379 160.753 621.683 162.899 619.141 162.899C614.903 162.899 611.937 166.332 611.937 170.194C611.937 172.34 610.241 174.486 607.699 174.486C605.58 174.486 603.461 172.769 603.461 170.194C603.461 166.332 600.071 162.899 596.257 162.899C594.138 162.899 592.019 161.183 592.019 158.608ZM341.566 -269.236C341.566 -271.382 343.261 -273.528 345.803 -273.528C350.041 -273.528 353.008 -276.961 353.008 -280.823C353.008 -282.969 354.703 -285.114 357.245 -285.114C359.364 -285.114 361.483 -283.398 361.483 -280.823C361.483 -276.961 364.873 -273.528 368.687 -273.528C371.23 -273.528 372.925 -271.811 372.925 -269.236C372.925 -267.091 371.23 -264.945 368.687 -264.945C364.45 -264.945 361.483 -261.512 361.483 -257.65C361.483 -255.504 359.788 -253.359 357.245 -253.359C355.127 -253.359 353.008 -255.075 353.008 -257.65C353.008 -261.512 349.617 -264.945 345.803 -264.945C343.685 -264.945 341.566 -266.662 341.566 -269.236ZM26.6981 23.4314C26.6981 19.5692 23.3078 16.1361 19.4938 16.1361C17.3749 16.1361 15.256 14.4196 15.256 11.8448C15.256 9.69917 16.9511 7.55351 19.4938 7.55351C23.7316 7.55351 26.6981 4.12044 26.6981 0.258256C26.6981 -1.8874 28.3932 -4.03306 30.9358 -4.03306C33.0547 -4.03306 35.1736 -2.31653 35.1736 0.258256C35.1736 4.12044 38.5639 7.55351 42.3779 7.55351C44.9205 7.55351 46.6157 9.27004 46.6157 11.8448C46.6157 13.9905 44.9205 16.1361 42.3779 16.1361C38.1401 16.1361 35.1736 19.5692 35.1736 23.4314C35.1736 25.577 33.4785 27.7227 30.9358 27.7227C28.817 27.7227 26.6981 26.0062 26.6981 23.4314ZM298.34 -82.135C298.34 -83.8515 299.612 -85.1389 301.307 -85.1389C303.849 -85.1389 305.968 -87.2846 305.968 -89.8594C305.968 -91.5759 307.24 -92.8633 308.935 -92.8633C310.63 -92.8633 311.901 -91.5759 311.901 -89.8594C311.901 -87.2846 314.02 -85.1389 316.563 -85.1389C318.258 -85.1389 319.105 -83.8515 319.529 -82.135C319.529 -80.4185 318.258 -79.1311 316.563 -79.1311C314.02 -79.1311 311.901 -76.9854 311.901 -74.4106C311.901 -72.6941 310.63 -71.4067 308.935 -71.4067C307.24 -71.4067 305.968 -72.6941 305.968 -74.4106C305.968 -76.9854 303.849 -79.1311 301.307 -79.1311C299.612 -79.1311 298.34 -80.4185 298.34 -82.135ZM612.36 -173.111C612.36 -174.827 613.632 -176.115 615.327 -176.115C617.869 -176.115 619.988 -178.26 619.988 -180.835C619.988 -182.552 621.26 -183.839 622.955 -183.839C624.65 -183.839 625.921 -182.552 625.921 -180.835C625.921 -178.26 628.04 -176.115 630.583 -176.115C632.278 -176.115 633.549 -174.827 633.549 -173.111C633.549 -171.394 632.278 -170.107 630.583 -170.107C628.04 -170.107 625.921 -167.961 625.921 -165.387C625.921 -163.67 624.65 -162.383 622.955 -162.383C621.26 -162.383 619.988 -163.67 619.988 -165.387C619.988 -167.961 617.869 -170.107 615.327 -170.107C613.632 -170.107 612.36 -171.394 612.36 -173.111ZM46.6157 395.918C46.6157 397.634 45.3443 398.922 43.6492 398.922C41.1065 398.922 38.9876 401.067 38.9876 403.642C38.9876 405.359 37.7163 406.646 36.0212 406.646C34.3261 406.646 33.0547 405.359 33.0547 403.642C33.0547 401.067 30.9358 398.922 28.3932 398.922C26.6981 398.922 25.4267 397.634 25.4267 395.918C25.4267 394.201 26.6981 392.914 28.3932 392.914C30.9358 392.914 33.0547 390.768 33.0547 388.193C33.0547 386.477 34.3261 385.189 36.0212 385.189C37.7163 385.189 38.9876 386.477 38.9876 388.193C38.9876 390.768 41.1065 392.914 43.6492 392.914C45.3443 392.914 46.6157 394.201 46.6157 395.918ZM491.583 92.0924C491.583 88.6594 494.55 85.6555 497.94 85.6555C501.33 85.6555 504.297 88.6594 504.297 92.0924C504.297 95.5255 501.33 98.5294 497.94 98.5294C494.55 98.5294 491.583 95.5255 491.583 92.0924ZM491.583 -46.5171C488.193 -46.5171 485.227 -49.521 485.227 -52.9541C485.227 -56.3871 488.193 -59.391 491.583 -59.391C494.974 -59.391 497.94 -56.3871 497.94 -52.9541C497.94 -49.521 494.974 -46.5171 491.583 -46.5171ZM198.752 56.9037C198.752 60.3367 195.786 63.3406 192.396 63.3406C189.005 63.3406 186.039 60.3367 186.039 56.9037C186.039 53.4706 189.005 50.4667 192.396 50.4667C195.786 50.4667 198.752 53.4706 198.752 56.9037ZM159.341 346.138C159.341 349.571 156.374 352.575 152.984 352.575C149.594 352.575 146.627 349.571 146.627 346.138C146.627 342.705 149.594 339.701 152.984 339.701C156.374 339.701 159.341 342.705 159.341 346.138ZM12.7134 -282.969C12.7134 -279.536 9.74691 -276.532 6.35668 -276.532C2.96645 -276.532 0 -279.536 0 -282.969C0 -286.402 2.96645 -289.406 6.35668 -289.406C9.74691 -289.406 12.7134 -286.402 12.7134 -282.969ZM641.601 -289.406C641.601 -292.839 644.567 -295.843 647.958 -295.843C651.348 -295.843 654.314 -292.839 654.314 -289.406C654.314 -285.973 651.348 -282.969 647.958 -282.969C644.567 -282.969 641.601 -285.973 641.601 -289.406ZM875.527 -206.154C876.798 -211.733 882.307 -215.595 887.816 -214.308C893.326 -213.02 897.14 -207.441 895.868 -201.863C894.597 -196.284 889.088 -192.422 883.579 -193.709C878.07 -194.997 874.256 -200.575 875.527 -206.154ZM889.512 -164.528L926.804 -219.028C928.075 -220.745 930.618 -221.174 932.313 -219.886C933.585 -218.599 934.008 -216.453 932.737 -214.737L895.444 -160.237C894.597 -158.95 892.902 -158.52 891.63 -158.52C891.207 -158.52 890.783 -158.95 890.359 -158.95C888.664 -160.237 888.24 -162.812 889.512 -164.528ZM822.978 -28.9227C822.978 -31.0683 824.673 -33.214 827.216 -33.214C831.454 -33.214 834.42 -36.6471 834.42 -40.5093C834.42 -42.6549 836.115 -44.8006 838.658 -44.8006C840.777 -44.8006 842.896 -43.084 842.896 -40.5093C842.896 -36.6471 846.286 -33.214 850.1 -33.214C852.643 -33.214 854.338 -31.4975 854.338 -28.9227C854.338 -26.777 852.643 -24.6314 850.1 -24.6314C845.862 -24.6314 842.896 -21.1983 842.896 -17.3361C842.896 -15.1905 841.201 -13.0448 838.658 -13.0448C836.539 -13.0448 834.42 -14.7613 834.42 -17.3361C834.42 -21.1983 831.03 -24.6314 827.216 -24.6314C825.097 -24.6314 822.978 -26.3479 822.978 -28.9227ZM937.399 -186.414C942.908 -185.556 946.298 -179.977 945.45 -173.969C944.179 -168.39 938.67 -164.528 933.161 -165.816C927.652 -167.103 923.838 -172.682 925.109 -178.261C926.38 -183.839 931.889 -187.701 937.399 -186.414ZM842.048 -146.934C844.167 -135.347 853.49 -126.336 864.932 -125.477C867.051 -125.048 869.594 -125.477 871.713 -125.906L962.402 -141.784C968.758 -143.072 974.691 -146.934 978.505 -152.513L1002.24 -189.418C1009.02 -200.146 1006.47 -214.308 996.728 -221.603L962.402 -247.351C957.316 -251.213 950.536 -252.929 944.179 -251.642L853.067 -235.764C846.286 -234.477 840.353 -230.615 836.539 -225.036C832.725 -219.457 831.03 -212.591 832.301 -205.725L842.048 -146.934ZM845.862 -219.028C847.981 -222.032 851.371 -224.178 855.185 -225.036L946.298 -240.914C947.569 -240.914 948.417 -241.343 949.688 -240.914C951.807 -240.485 953.926 -240.055 956.045 -238.339L990.371 -212.591C995.032 -208.729 996.304 -201.004 992.914 -195.426L969.182 -158.52C967.487 -155.517 964.097 -153.371 960.706 -152.942L870.018 -137.064C861.966 -135.776 854.762 -140.926 853.067 -149.08L843.32 -207.871C842.472 -211.733 843.743 -215.595 845.862 -219.028ZM780.177 -294.126C780.177 -290.693 777.21 -287.689 773.82 -287.689C770.43 -287.689 767.463 -290.693 767.463 -294.126C767.463 -297.559 770.43 -300.563 773.82 -300.563C777.21 -300.563 780.177 -297.559 780.177 -294.126ZM1026.39 426.815C1026.39 419.091 1025.54 410.508 1023 401.067L1017.07 381.756L1028.93 377.894L1035.29 398.063C1039.53 412.225 1034.02 420.378 1026.39 426.815ZM773.396 363.304C773.396 365.02 772.125 366.308 770.43 366.308C767.887 366.308 765.768 368.453 765.768 371.028C765.768 372.745 764.497 374.032 762.802 374.032C761.107 374.032 759.835 372.745 759.835 371.028C759.835 368.453 757.716 366.308 755.174 366.308C753.479 366.308 752.207 365.02 752.207 363.304C752.207 361.587 753.479 360.3 755.174 360.3C757.716 360.3 759.835 358.154 759.835 355.579C759.835 353.863 761.107 352.575 762.802 352.575C764.497 352.575 765.768 353.863 765.768 355.579C765.768 358.154 767.887 360.3 770.43 360.3C772.125 360.3 773.396 361.587 773.396 363.304ZM956.045 290.78C959.435 290.78 962.402 293.784 962.402 297.217C962.402 300.65 959.435 303.654 956.045 303.654C952.655 303.654 949.688 300.65 949.688 297.217C949.688 293.784 952.655 290.78 956.045 290.78ZM1161.58 44.888L1155.64 25.577L1167.51 21.7148L1173.87 41.884C1178.1 56.0454 1172.6 64.1989 1164.97 70.6359C1164.97 62.9115 1164.12 54.3289 1161.58 44.888ZM1050.55 390.768C1057.33 412.654 1049.28 433.681 1030.21 444.839C1028.09 450.417 1025.12 455.138 1021.31 459H1009.86L1009.44 458.142C1016.65 452.992 1020.46 446.984 1023.43 438.831C1039.95 430.677 1048.85 413.941 1042.5 393.343L1034.44 366.737L1014.53 373.174L1011.98 365.02L939.517 387.764L942.06 395.918L922.143 402.355L930.194 428.961C936.551 449.559 953.078 458.142 971.301 455.567C972.996 456.854 974.691 458.142 976.386 459H942.484C933.161 453.421 925.957 443.98 922.143 431.965L914.091 405.359C912.819 400.638 915.362 395.918 919.6 394.63L931.466 390.768C930.194 386.048 932.737 381.327 936.975 380.04L1009.44 357.296C1014.1 356.008 1018.76 358.583 1020.04 362.875L1031.9 359.012C1036.56 357.725 1041.22 360.3 1042.5 364.591L1050.55 390.768ZM1006.47 398.063L999.27 413.083L1006.47 428.532L990.795 425.099L979.353 436.685L977.234 419.949L962.402 411.796L976.81 404.929L979.353 387.764L990.795 400.638L1006.47 398.063ZM959.859 52.1832C956.469 52.1832 953.502 49.1793 953.502 45.7462C953.502 42.3132 956.469 39.3092 959.859 39.3092C963.249 39.3092 966.215 42.3132 966.215 45.7462C966.215 49.1793 963.249 52.1832 959.859 52.1832ZM918.752 266.749L930.194 204.525C934.856 205.383 939.094 202.379 939.941 197.659L943.755 177.061C943.755 171.911 940.789 167.62 936.551 166.761L924.685 164.616C924.685 164.616 924.685 164.616 924.685 164.187C926.804 146.163 912.819 136.293 902.649 134.576C897.563 133.718 890.359 134.147 882.307 139.726C877.222 131.573 870.441 128.569 865.356 127.71C856.881 125.994 839.082 128.14 833.997 147.021C833.997 147.021 833.997 147.021 833.997 147.45L822.131 145.305C817.469 144.447 813.231 147.45 812.384 152.171L808.57 172.769C807.722 177.49 810.689 181.781 815.35 182.639L803.908 244.863C803.061 249.584 806.027 253.875 810.689 254.733L909.005 273.615C913.667 274.473 917.905 271.469 918.752 266.749ZM820.436 153.029L842.896 157.32C841.201 156.891 841.201 152.171 842.048 148.738C846.286 132.431 863.661 135.435 863.661 135.435C872.137 137.151 877.222 145.305 879.765 153.458C885.274 146.592 892.478 140.584 901.377 142.301C901.377 142.301 918.752 145.734 916.633 162.47C916.21 165.903 914.091 170.194 912.819 170.194L935.28 174.486L931.042 195.513L816.622 173.627L820.436 153.029ZM909.853 264.603L811.536 245.722L823.826 179.635L851.371 184.785L832.725 207.1H843.743L847.134 216.541L870.442 188.218L875.527 189.076L887.393 224.265L894.173 216.97L904.344 220.832L895.021 192.938L922.566 198.088L909.853 264.603ZM907.31 162.041C906.886 164.187 905.615 165.903 902.225 166.761C899.258 167.62 895.021 167.62 889.935 166.761L881.884 165.045C886.545 157.32 893.326 150.025 899.258 151.313C900.954 151.313 908.582 153.458 907.31 162.041ZM872.56 163.757L864.509 162.041C859.847 160.754 855.609 159.466 853.067 157.32C850.1 154.746 849.676 153.029 850.1 150.883C852.219 143.588 859 143.588 861.966 144.017C868.323 145.305 871.713 154.317 872.56 163.757ZM944.603 404.071L950.959 422.953C953.926 432.823 957.316 440.547 962.402 446.555C952.231 445.697 943.331 442.264 939.094 428.103L932.737 407.933L944.603 404.071ZM1259.05 80.935C1259.05 77.502 1262.01 74.498 1265.4 74.498C1268.79 74.498 1271.76 77.502 1271.76 80.935C1271.76 84.3681 1268.79 87.372 1265.4 87.372C1262.01 87.372 1259.05 84.3681 1259.05 80.935ZM1340.84 276.19L1331.94 270.611C1330.67 269.753 1329.82 268.036 1329.82 266.32L1331.09 255.592C1331.51 251.3 1330.67 247.438 1327.7 244.005C1325.16 241.001 1321.34 238.855 1317.1 238.855L1306.51 238.426C1304.81 238.426 1303.54 237.139 1302.7 235.852L1298.88 225.981C1297.19 222.119 1294.22 219.115 1290.41 217.828C1286.59 216.541 1282.35 216.541 1278.54 218.686L1269.22 223.407C1267.95 224.265 1265.83 223.836 1264.56 222.978L1256.08 216.541C1252.69 213.966 1248.88 213.108 1244.64 213.537C1240.4 214.395 1237.01 216.541 1234.89 219.974L1229.38 228.985C1228.53 230.273 1226.84 231.131 1225.14 231.131L1214.55 229.844C1210.74 229.415 1206.5 230.273 1203.11 233.277C1200.14 235.852 1198.02 239.714 1198.02 244.005L1197.6 254.733C1197.6 256.45 1196.33 257.737 1195.06 258.596L1185.31 262.458C1181.5 264.174 1178.53 267.178 1177.26 271.04C1175.99 274.903 1175.99 279.194 1178.1 283.056L1182.77 292.497C1183.61 293.784 1183.19 295.93 1182.34 297.217L1175.99 305.8C1173.44 309.233 1172.6 313.095 1173.02 317.387C1173.87 321.678 1175.99 325.111 1179.38 327.257L1188.28 332.835C1189.55 333.694 1190.39 335.41 1190.39 337.127L1189.12 347.855C1188.7 352.146 1189.55 356.008 1192.51 359.441C1195.06 362.445 1198.87 364.591 1203.11 364.591L1213.7 365.02C1215.4 365.02 1216.67 366.308 1217.52 367.595L1221.33 377.465C1223.03 381.327 1225.99 384.331 1229.81 385.618C1231.08 386.048 1232.35 386.477 1233.62 386.477C1236.59 386.906 1239.13 386.048 1241.67 384.76L1250.99 380.04C1252.27 379.182 1254.38 379.611 1255.66 380.469L1264.13 386.906C1267.52 389.481 1271.34 390.339 1275.57 389.91C1279.81 389.052 1283.2 386.906 1285.32 383.473L1290.83 374.461C1291.68 373.174 1293.37 372.315 1295.07 372.315L1305.66 373.603C1309.48 374.032 1313.71 373.174 1317.1 370.17C1320.07 367.595 1322.19 363.733 1322.19 359.441L1322.61 348.713C1322.61 346.997 1323.88 345.709 1325.16 344.851L1334.9 340.989C1338.72 339.272 1341.68 336.268 1342.95 332.406C1344.23 328.544 1344.23 324.253 1342.11 320.39L1337.45 310.95C1336.6 309.662 1337.02 307.516 1337.87 306.229L1344.23 297.646C1346.77 294.213 1347.62 290.351 1347.19 286.06C1346.34 281.769 1344.23 278.336 1340.84 276.19ZM1334.48 291.639L1328.12 300.221C1326.43 304.513 1325.58 310.52 1328.12 315.67L1332.78 325.111C1333.21 326.398 1333.21 327.257 1332.78 328.544C1332.36 329.831 1331.51 330.69 1330.24 331.119L1320.49 334.981C1315.41 337.127 1311.6 342.276 1311.17 347.855L1310.75 358.583C1310.75 359.871 1310.32 360.729 1309.05 361.587C1308.2 362.445 1306.93 362.875 1305.66 362.445L1295.07 361.158C1289.56 360.3 1283.63 362.875 1280.66 368.024L1275.15 377.036C1274.3 377.894 1273.45 378.752 1272.18 379.181C1270.91 379.181 1269.64 379.181 1268.79 378.323L1260.32 371.886C1255.66 368.453 1249.72 367.595 1244.64 370.599L1235.31 375.319C1234.04 375.748 1233.2 376.178 1231.92 375.748C1230.65 375.319 1229.81 374.461 1229.38 373.174L1225.57 363.304C1223.45 358.154 1218.79 354.721 1213.28 354.292C1212.85 354.292 1212.85 354.292 1212.43 354.292L1201.84 353.863C1200.57 353.863 1199.72 353.434 1198.87 352.146C1198.02 351.288 1197.6 350.001 1198.02 348.713L1199.29 337.985C1200.14 332.406 1197.6 326.398 1192.94 323.394L1184.04 317.816C1183.19 316.957 1182.34 316.099 1181.92 314.812C1181.92 313.524 1181.92 312.237 1182.77 311.379L1189.12 302.796C1192.51 298.076 1193.36 292.068 1190.39 286.918L1185.73 277.477C1185.31 276.19 1185.31 275.332 1185.31 274.044C1185.73 272.757 1186.58 271.899 1187.85 271.469L1197.6 267.607C1202.68 265.462 1206.5 260.312 1206.5 254.733L1206.92 244.005C1206.92 242.718 1207.35 241.859 1208.62 241.001C1209.46 240.143 1210.74 239.714 1212.01 240.143L1222.6 241.43C1228.11 242.289 1234.04 239.714 1237.01 234.993L1242.52 225.981C1243.37 225.123 1244.21 224.265 1245.49 223.836C1246.76 223.836 1248.03 223.836 1248.88 224.694L1257.35 231.131C1262.01 234.564 1267.95 235.422 1273.03 232.418L1282.35 227.698C1283.63 227.269 1284.47 226.84 1285.74 227.269C1287.02 227.698 1287.86 228.556 1288.29 229.844L1292.1 239.714C1294.22 244.863 1299.31 248.725 1304.81 248.725L1315.41 249.155C1316.68 249.155 1317.53 249.584 1318.38 250.871C1319.22 251.729 1319.65 253.017 1319.22 254.304L1317.95 265.033C1317.1 270.611 1319.65 276.619 1324.31 279.623L1333.21 285.202C1334.06 286.06 1334.9 286.918 1335.33 288.206C1335.33 289.493 1335.33 290.78 1334.48 291.639ZM1075.13 249.584C1075.13 251.729 1073.43 253.875 1070.89 253.875C1066.65 253.875 1063.68 257.308 1063.68 261.17C1063.68 263.316 1061.99 265.462 1059.45 265.462C1057.33 265.462 1055.21 263.745 1055.21 261.17C1055.21 257.308 1051.82 253.875 1048 253.875C1045.89 253.875 1043.77 252.159 1043.77 249.584C1043.77 247.438 1045.46 245.292 1048 245.292C1052.24 245.292 1055.21 241.859 1055.21 237.997C1055.21 235.852 1056.9 233.706 1059.45 233.706C1061.57 233.706 1063.68 235.422 1063.68 237.997C1063.68 241.859 1067.07 245.292 1070.89 245.292C1073.43 245.292 1075.13 247.009 1075.13 249.584ZM1368.38 153.458C1368.38 155.604 1366.69 157.75 1364.14 157.75C1359.91 157.75 1356.94 161.183 1356.94 165.045C1356.94 167.19 1355.24 169.336 1352.7 169.336C1350.58 169.336 1348.46 167.62 1348.46 165.045C1348.46 161.183 1345.07 157.75 1341.26 157.75C1339.14 157.75 1337.02 156.033 1337.02 153.458C1337.02 151.313 1338.72 149.167 1341.26 149.167C1345.5 149.167 1348.46 145.734 1348.46 141.872C1348.46 139.726 1350.16 137.58 1352.7 137.58C1354.82 137.58 1356.94 139.297 1356.94 141.872C1356.94 145.734 1360.33 149.167 1364.14 149.167C1366.69 149.167 1368.38 150.883 1368.38 153.458ZM1259.05 -57.6745C1255.66 -57.6745 1252.69 -60.6784 1252.69 -64.1115C1252.69 -67.5445 1255.66 -70.5485 1259.05 -70.5485C1262.44 -70.5485 1265.4 -67.5445 1265.4 -64.1115C1265.4 -60.6784 1262.44 -57.6745 1259.05 -57.6745ZM1409.06 -300.563C1409.06 -303.996 1412.03 -307 1415.42 -307C1418.81 -307 1421.78 -303.996 1421.78 -300.563C1421.78 -297.13 1418.81 -294.126 1415.42 -294.126C1412.03 -294.126 1409.06 -297.13 1409.06 -300.563ZM1401.01 -184.268C1401.01 -182.552 1399.74 -181.264 1398.05 -181.264C1395.5 -181.264 1393.38 -179.119 1393.38 -176.544C1393.38 -174.827 1392.11 -173.54 1390.42 -173.54C1388.72 -173.54 1387.45 -174.827 1387.45 -176.544C1387.45 -179.119 1385.33 -181.264 1382.79 -181.264C1381.09 -181.264 1379.82 -182.552 1379.82 -184.268C1379.82 -185.985 1381.09 -187.272 1382.79 -187.272C1385.33 -187.272 1387.45 -189.418 1387.45 -191.993C1387.45 -193.709 1388.72 -194.997 1390.42 -194.997C1392.11 -194.997 1393.38 -193.709 1393.38 -191.993C1393.38 -189.418 1395.5 -187.272 1398.05 -187.272C1399.74 -187.272 1401.01 -185.985 1401.01 -184.268ZM1420.08 -34.0723C1423.47 -34.0723 1426.44 -31.0684 1426.44 -27.6353C1426.44 -24.2022 1423.47 -21.1983 1420.08 -21.1983C1416.69 -21.1983 1413.73 -24.2022 1413.73 -27.6353C1413.73 -31.0684 1416.69 -34.0723 1420.08 -34.0723ZM1440 382.185C1440 384.331 1438.3 386.477 1435.76 386.477C1431.52 386.477 1428.56 389.91 1428.56 393.772C1428.56 395.918 1426.86 398.063 1424.32 398.063C1422.2 398.063 1420.08 396.347 1420.08 393.772C1420.08 389.91 1416.69 386.477 1412.88 386.477C1410.76 386.477 1408.64 384.76 1408.64 382.185C1408.64 380.04 1410.34 377.894 1412.88 377.894C1417.12 377.894 1420.08 374.461 1420.08 370.599C1420.08 368.453 1421.78 366.308 1424.32 366.308C1426.44 366.308 1428.56 368.024 1428.56 370.599C1428.56 374.461 1431.95 377.894 1435.76 377.894C1438.3 377.894 1440 379.611 1440 382.185ZM1293.8 283.056L1234.47 332.835C1233.2 333.694 1231.92 334.123 1230.65 334.123C1229.38 334.123 1228.11 333.694 1227.26 332.406C1225.57 330.261 1225.99 326.827 1228.11 325.111L1287.44 275.332C1289.56 273.615 1292.95 274.044 1294.64 276.19C1296.34 278.336 1296.34 281.769 1293.8 283.056ZM1186.16 124.277C1182.77 114.407 1171.32 107.112 1158.19 106.254L1157.76 104.966C1162.85 100.675 1166.24 95.5255 1168.78 88.6594C1187.85 77.5019 1195.9 56.4745 1189.12 34.5888L1181.07 8.41176C1179.8 4.12045 1175.14 1.54564 1170.48 2.83304L1158.61 6.69523C1157.34 2.40391 1152.68 -0.170857 1148.02 1.11654L1075.55 23.8605C1071.31 25.1479 1068.77 29.8683 1070.04 34.5888L1058.18 38.451C1053.94 39.7384 1051.4 44.4588 1052.67 49.1793L1060.72 75.7854C1067.5 97.6711 1085.3 110.545 1107.76 108.829C1113.69 112.691 1119.62 114.836 1125.98 116.124L1126.4 116.982C1116.23 125.565 1110.72 138.01 1113.69 147.021C1114.96 151.313 1119.62 153.887 1124.28 152.6L1180.65 135.006C1184.89 133.718 1187.43 128.998 1186.16 124.277ZM1120.89 143.588C1119.2 138.439 1124.28 126.423 1135.73 119.557L1131.91 107.112C1123.44 107.541 1116.66 104.537 1109.88 99.3877C1091.65 101.962 1075.13 93.3798 1068.77 72.7815L1060.72 46.1754L1080.64 39.7384L1078.09 31.5849L1150.56 8.84089L1153.1 16.9944L1173.02 10.5574L1181.07 37.1636C1187.43 57.7619 1178.53 74.4981 1162 82.6516C1159.03 90.8051 1155.22 96.8129 1148.02 101.962L1151.83 114.407C1164.97 113.978 1175.99 120.844 1177.26 125.994L1120.89 143.588ZM1109.03 -280.394C1109.03 -282.539 1110.72 -284.685 1113.27 -284.685C1117.5 -284.685 1120.47 -288.118 1120.47 -291.98C1120.47 -294.126 1122.17 -296.272 1124.71 -296.272C1126.83 -296.272 1128.95 -294.555 1128.95 -291.98C1128.95 -288.118 1132.34 -284.685 1136.15 -284.685C1138.69 -284.685 1140.39 -282.969 1140.39 -280.394C1140.39 -278.248 1138.69 -276.103 1136.15 -276.103C1131.91 -276.103 1128.95 -272.669 1128.95 -268.807C1128.95 -266.662 1127.25 -264.516 1124.71 -264.516C1122.59 -264.516 1120.47 -266.232 1120.47 -268.807C1120.47 -272.669 1117.08 -276.103 1113.27 -276.103C1111.15 -276.103 1109.03 -277.819 1109.03 -280.394ZM1297.61 328.973C1296.76 335.839 1290.41 341.418 1283.63 340.56C1276.85 339.701 1271.34 333.694 1272.18 326.398C1273.03 319.532 1278.96 313.953 1286.17 314.812C1292.95 315.241 1298.46 321.678 1297.61 328.973ZM1089.53 66.7737C1092.5 76.6437 1095.89 84.3681 1100.98 90.3759C1090.81 89.5176 1081.91 86.0846 1077.67 71.9233L1071.31 51.7541L1083.18 47.8919L1089.53 66.7737ZM1065.8 -93.2924C1065.8 -95.009 1067.07 -96.2964 1068.77 -96.2964C1071.31 -96.2964 1073.43 -98.442 1073.43 -101.017C1073.43 -102.733 1074.7 -104.021 1076.4 -104.021C1078.09 -104.021 1079.36 -102.733 1079.36 -101.017C1079.36 -98.442 1081.48 -96.2964 1084.03 -96.2964C1085.72 -96.2964 1086.57 -95.009 1086.99 -93.2924C1086.99 -91.5759 1085.72 -90.2885 1084.03 -90.2885C1081.48 -90.2885 1079.36 -88.1429 1079.36 -85.5681C1079.36 -83.8515 1078.09 -82.5641 1076.4 -82.5641C1074.7 -82.5641 1073.43 -83.8515 1073.43 -85.5681C1073.43 -88.1429 1071.31 -90.2885 1068.77 -90.2885C1067.07 -90.2885 1065.8 -91.5759 1065.8 -93.2924ZM1145.05 41.884L1137.85 56.9037L1145.05 72.3524L1129.37 68.9193L1117.93 80.5059L1115.81 63.7698L1100.98 55.6162L1115.39 48.7501L1117.93 31.5849L1129.37 44.4588L1145.05 41.884ZM1225.57 282.627C1226.42 275.761 1232.77 270.182 1239.55 271.04C1246.33 271.899 1251.84 277.906 1250.99 285.202C1250.57 292.497 1243.79 297.646 1237.01 296.788C1230.23 295.93 1224.72 289.922 1225.57 282.627ZM1194.63 -197.142C1195.06 -197.142 1195.06 -197.142 1195.48 -196.713L1210.31 -191.134L1212.43 -175.257C1212.85 -172.253 1214.55 -169.678 1217.52 -168.39H1217.94C1220.91 -167.103 1223.87 -167.532 1226.42 -169.678L1256.93 -194.568C1257.35 -194.138 1258.2 -193.709 1258.62 -193.28C1259.05 -192.851 1259.89 -192.851 1260.74 -192.851L1262.44 -152.942C1262.44 -149.938 1264.13 -146.934 1267.1 -145.647H1267.52C1270.06 -144.359 1273.46 -144.788 1275.57 -146.505L1288.71 -155.517L1302.7 -147.792L1303.12 -147.363C1305.66 -146.076 1308.63 -146.505 1311.17 -147.792C1313.71 -149.509 1315.41 -152.513 1315.41 -155.517L1313.29 -209.587L1320.07 -214.308C1322.61 -216.024 1323.88 -219.028 1323.46 -222.032L1322.61 -230.615L1326 -238.339C1327.27 -241.343 1326.85 -244.347 1325.16 -246.922L1320.49 -253.788L1319.65 -262.37C1319.22 -265.374 1317.53 -267.949 1314.56 -269.236L1306.93 -272.669L1302.27 -279.536C1301 -281.252 1299.73 -282.11 1298.46 -282.539C1297.19 -282.969 1295.49 -283.398 1294.22 -283.398L1285.74 -282.539L1278.12 -285.973C1275.15 -287.26 1272.18 -286.831 1269.64 -285.114L1262.86 -280.394L1254.39 -279.536C1251.42 -279.106 1248.88 -277.39 1247.6 -274.386L1244.21 -266.662L1237.43 -261.941C1234.89 -260.225 1233.62 -257.221 1234.04 -254.217L1234.89 -245.634L1192.94 -211.733C1190.39 -209.587 1189.55 -206.583 1189.97 -203.579C1190.39 -200.575 1192.09 -198.43 1194.63 -197.142ZM1287.86 -165.816L1270.49 -153.8L1268.79 -198.001L1271.76 -198.43L1282.78 -193.28L1284.9 -194.568L1292.53 -200.146L1301.85 -201.004L1304.39 -201.863L1306.09 -155.517L1287.86 -165.816ZM1242.52 -255.075L1250.99 -261.512L1255.23 -271.382L1265.83 -272.24L1274.3 -278.677L1284.05 -274.386L1295.07 -274.815L1301.42 -266.232L1311.17 -261.941L1312.02 -251.213L1318.38 -242.63L1314.14 -232.76L1314.99 -222.032L1306.51 -215.595L1302.27 -205.725L1291.68 -204.867L1283.2 -198.43L1273.46 -202.721L1262.86 -201.863L1256.5 -210.445L1246.76 -214.737L1245.49 -225.894L1239.13 -234.477L1243.37 -244.347L1242.52 -255.075ZM1234.04 -234.477L1235.31 -231.902L1240.82 -224.178L1241.67 -214.737L1242.1 -212.162L1253.11 -207.012L1254.81 -204.438L1220.91 -176.544L1218.36 -197.571L1198.45 -204.867L1234.04 -234.477ZM1267.1 -213.878C1280.24 -207.871 1295.92 -213.878 1301.85 -227.182C1307.78 -240.485 1301.85 -256.362 1288.71 -262.37C1275.57 -268.378 1259.89 -262.37 1253.96 -249.067C1248.03 -235.764 1253.96 -219.886 1267.1 -213.878ZM1257.78 -247.351C1262.86 -258.508 1276 -263.658 1287.02 -258.508C1298.03 -253.359 1303.12 -240.055 1298.03 -228.898C1292.95 -217.741 1279.81 -212.591 1268.79 -217.741C1257.78 -222.89 1252.69 -236.193 1257.78 -247.351ZM767.887 16.5653L759.835 11.4157C758.564 10.5574 757.716 8.84091 758.14 7.55351L759.411 -2.31653C759.835 -6.17871 758.988 -10.0409 756.445 -13.0448C753.902 -16.0487 750.512 -17.7653 746.698 -17.7653L736.951 -18.1944C735.256 -18.1944 733.985 -19.0527 733.561 -20.7692L729.747 -29.781C728.476 -33.214 725.509 -36.2179 722.119 -37.5053C718.729 -38.7927 714.491 -38.7927 711.101 -36.6471L702.625 -32.3557C701.354 -31.4975 699.659 -31.9266 698.387 -32.7849L690.759 -38.7927C687.793 -40.9384 683.979 -42.2258 680.165 -41.3675C676.351 -40.9384 672.961 -38.3636 671.266 -35.3597L666.18 -27.2062C665.333 -25.9188 663.637 -25.0605 662.366 -25.4896L652.619 -26.777C648.805 -27.2062 644.991 -26.3479 642.025 -23.7731C639.058 -21.1983 637.363 -17.7653 637.363 -13.9031L636.939 -4.03306C636.939 -2.31653 636.092 -1.02913 634.397 -0.599995L625.497 3.2622C622.107 4.54959 619.141 7.55349 617.869 10.9865C616.598 14.4196 616.598 18.7109 618.717 22.144L622.955 30.7266C623.802 32.014 623.379 33.7305 622.531 35.0179L616.598 42.7423C614.479 45.7462 613.208 49.6084 614.055 53.4706C614.479 57.3328 617.022 60.7658 619.988 62.4823L628.04 67.6319C629.311 68.4902 630.159 70.2067 629.735 71.4941L628.464 81.3641C628.04 85.2263 628.888 89.0885 631.43 92.0924C633.973 95.0964 637.363 96.8129 641.177 96.8129L650.924 97.242C652.619 97.242 653.891 98.1003 654.314 99.8168L658.128 108.829C659.4 112.262 662.366 115.266 665.756 116.553C667.028 116.982 667.875 117.411 669.147 117.411C671.689 117.84 674.232 116.982 676.775 116.124L685.25 111.832C686.522 110.974 688.217 111.403 689.488 112.262L697.116 118.269C700.082 120.415 703.896 121.703 707.71 120.844C711.524 120.415 714.915 117.84 716.61 114.836L721.695 106.683C722.543 105.396 724.238 104.537 725.509 104.966L735.256 106.254C739.07 106.683 742.884 105.825 745.851 103.25C748.817 100.675 750.512 97.242 750.512 93.3798L750.936 83.5098C750.936 81.7933 751.783 80.5059 753.479 80.0767L762.378 76.2146C765.768 74.9272 768.735 71.9232 770.006 68.4902C771.277 65.0571 771.277 60.7658 769.158 57.3328L764.921 48.321C764.073 47.0336 764.497 45.3171 765.344 44.0297L771.277 36.3053C773.396 33.3014 774.668 29.4392 773.82 25.577C773.396 21.7148 770.853 18.2818 767.887 16.5653ZM764.073 30.2975L758.14 38.0219C754.326 42.3132 753.902 47.8919 756.445 52.6123L760.683 61.195C761.107 62.0532 761.107 63.3406 760.683 64.628C760.259 65.4863 759.411 66.3445 758.564 66.7737L749.665 70.6359C745.003 72.7815 741.613 77.502 741.189 82.6516L740.765 92.5216C740.765 93.809 740.341 94.6672 739.494 95.5255C738.646 96.3838 737.375 96.3838 736.527 96.3838L726.781 95.0963C721.695 94.2381 716.61 96.8129 713.643 101.104L708.558 109.258C708.134 110.116 706.863 110.974 706.015 110.974C704.744 110.974 703.897 110.974 703.049 110.116L695.421 104.108C691.183 100.675 685.674 100.246 681.012 102.821L672.537 107.112C671.689 107.541 670.418 107.541 669.147 107.112C668.299 106.683 667.452 105.825 667.028 104.966L663.214 95.9546C661.519 91.2342 656.857 87.8011 652.195 87.372H651.772L642.025 86.9429C640.753 86.9429 639.906 86.5137 639.058 85.6555C638.211 84.7972 638.211 83.5098 638.211 82.6516L639.482 72.7815C640.33 67.6319 637.787 62.4824 633.549 59.4784L625.497 54.3288C624.65 53.8997 623.802 52.6123 623.802 51.7541C623.802 50.4667 623.802 49.6084 624.65 48.7501L630.583 41.0258C633.973 36.7344 634.397 31.1557 631.854 26.4353L627.616 17.8526C627.193 16.9944 627.193 15.707 627.616 14.4196C628.04 13.5613 628.888 12.7031 629.735 12.274L638.635 8.41176C643.296 6.26611 646.686 1.54564 647.11 -3.60394L647.534 -13.4739C647.534 -14.7613 647.958 -15.6196 648.805 -16.4779C649.653 -17.3361 650.924 -17.7653 651.772 -17.3361L661.519 -16.0487C666.604 -15.1905 671.689 -17.7653 674.656 -22.0566L679.741 -30.2101C680.165 -31.0683 681.436 -31.9266 682.284 -31.9266C683.555 -31.9266 684.403 -31.9266 685.25 -31.0683L692.878 -25.0605C697.116 -21.6275 702.625 -21.1983 707.287 -23.7731L715.762 -28.0644C716.61 -28.4936 717.881 -28.4936 719.152 -28.0644C720 -27.6353 720.848 -26.777 721.271 -25.9188L725.085 -16.907C727.204 -12.1866 731.866 -8.75351 736.951 -8.32438L746.698 -7.89525C747.546 -7.89525 748.817 -7.46611 749.665 -6.60784C750.512 -5.74958 750.512 -4.4622 750.512 -3.60394L749.241 6.26611C748.393 11.4157 750.936 16.5653 755.174 19.5692L763.226 24.7188C764.073 25.1479 764.921 26.4353 764.921 27.2936C764.921 28.581 764.921 29.4392 764.073 30.2975ZM661.942 22.5731C662.366 16.1361 668.299 11.4157 674.656 11.8448C681.012 12.274 685.674 18.2818 685.25 24.7188C684.403 31.1558 678.894 36.3053 672.537 35.4471C666.18 35.0179 661.519 29.0101 661.942 22.5731ZM728.052 64.628C727.628 71.065 721.695 75.7854 715.339 75.3563C708.982 74.9272 704.32 68.9193 704.744 62.4823C705.168 56.0454 711.101 51.3249 717.457 51.7541C723.814 52.6123 728.476 58.191 728.052 64.628ZM725.085 23.0022L670.418 68.9193C669.57 69.7776 668.299 70.2067 667.028 70.2067C665.756 70.2067 664.485 69.3485 663.638 68.4902C661.942 66.3445 661.942 63.3406 664.061 61.6241L718.729 15.707C720.848 13.9905 723.814 13.9905 725.509 16.1361C726.78 18.2818 726.781 21.2857 725.085 23.0022ZM406.404 428.103C407.251 431.965 405.98 435.827 403.861 438.831L397.928 446.555C397.081 447.843 396.657 449.559 397.504 450.847L401.318 459H390.724L388.605 455.138C386.062 450.417 386.486 444.839 390.3 440.547L396.233 432.823C397.081 431.965 397.081 431.106 397.081 429.819C397.081 428.961 396.233 427.673 395.386 427.244L387.334 422.095C383.096 419.091 380.553 413.941 381.401 408.792L382.672 398.922C382.672 398.063 382.672 396.776 381.825 395.918C380.977 395.059 379.706 394.63 378.858 394.63L369.111 394.201C364.026 393.772 359.364 390.339 357.245 385.618L353.431 376.607C353.008 375.748 352.16 374.89 351.313 374.461C350.041 374.032 348.77 374.032 347.922 374.461L339.447 378.752C334.785 381.327 329.276 380.898 325.038 377.465L317.41 371.457C316.563 370.599 315.715 370.599 314.444 370.599C313.596 370.599 312.325 371.457 311.901 372.315L306.816 380.469C303.849 384.76 298.764 387.335 293.679 386.477L283.932 385.189C283.084 384.76 281.813 385.189 280.965 386.048C280.118 386.906 279.694 387.764 279.694 389.052L279.27 398.922C278.846 404.071 275.456 408.792 270.795 410.937L261.895 414.799C261.048 415.229 260.2 416.087 259.776 416.945C259.353 418.232 259.353 419.52 259.776 420.378L264.014 428.961C266.557 433.681 266.133 439.26 262.743 443.551L256.81 451.276C255.962 452.134 255.962 452.992 255.962 454.28C255.962 455.138 256.81 456.425 257.657 456.854L261.048 459H247.063C246.639 458.142 246.215 456.854 246.215 455.996C245.368 452.134 246.639 448.272 248.758 445.268L254.691 437.543C255.539 436.256 255.962 434.539 255.115 433.252L250.877 424.669C248.758 421.236 248.758 416.945 250.029 413.512C251.301 410.079 254.267 407.075 257.657 405.788L266.557 401.925C268.252 401.496 269.099 400.209 269.099 398.492L269.523 388.622C269.523 384.76 271.218 381.327 274.185 378.752C277.151 376.178 280.965 375.319 284.779 375.748L294.526 377.036C295.798 377.465 297.493 376.607 298.34 375.319L303.426 367.166C305.121 364.162 308.511 361.587 312.325 361.158C316.139 360.3 319.953 361.587 322.919 363.733L330.547 369.741C331.819 370.599 333.514 371.028 334.785 370.17L343.261 365.878C346.651 363.733 350.889 363.733 354.279 365.02C357.669 366.308 360.636 369.311 361.907 372.745L365.721 381.756C366.145 383.473 367.416 384.331 369.111 384.331L378.858 384.76C382.672 384.76 386.062 386.477 388.605 389.481C391.148 392.485 391.995 396.347 391.572 400.209L390.3 410.079C389.876 411.366 390.724 413.083 391.995 413.941L400.047 419.091C403.437 420.807 405.98 424.24 406.404 428.103ZM305.121 437.973C298.764 437.543 294.102 431.536 294.526 425.099C294.95 418.662 300.883 413.941 307.24 414.37C313.596 414.799 318.258 420.807 317.834 427.244C316.986 433.681 311.477 438.831 305.121 437.973ZM358.093 459H339.447C341.989 455.996 345.803 453.85 350.041 454.28C353.431 454.709 356.398 456.425 358.093 459ZM358.093 418.662C359.364 420.807 359.364 423.811 357.669 425.528L317.834 459H303.002L351.736 418.232C353.431 416.516 356.398 416.516 358.093 418.662Z" fill="url(#paint0_linear_1103_15278)" fill-opacity="0.9"/>
<defs>
<linearGradient id="paint0_linear_1103_15278" x1="720" y1="-278.667" x2="720" y2="459" gradientUnits="userSpaceOnUse">
<stop stop-color="#FFCFC0"/>
<stop offset="0.711204" stop-color="#FFE8D7" stop-opacity="0"/>
</linearGradient>
</defs>
</svg>
