<svg width="119" height="32" viewBox="0 0 119 32" fill="none" xmlns="http://www.w3.org/2000/svg">
<g clip-path="url(#clip0)">
<path d="M29.1392 9.43748C30.3764 9.43748 31.3793 8.4313 31.3793 7.19012C31.3793 5.94893 30.3764 4.94275 29.1392 4.94275C27.902 4.94275 26.899 5.94893 26.899 7.19012C26.899 8.4313 27.902 9.43748 29.1392 9.43748Z" fill="#DC2323"/>
<path d="M88.5624 24.1204C87.46 23.4822 86.5669 22.5355 85.9924 21.3961C85.4188 20.2399 85.1269 18.9635 85.1407 17.672C85.1278 16.3781 85.4141 15.0987 85.9772 13.9345C86.5447 12.7831 87.4389 11.8257 88.5472 11.1827C89.703 10.4892 91.5872 10.1093 93.2705 10.1093C94.9531 10.1093 96.8075 10.4845 97.9632 11.169C99.0721 11.804 99.9709 12.7512 100.549 13.8935C101.109 15.0567 101.4 16.3321 101.4 17.6241C101.4 18.9162 101.109 20.1915 100.549 21.3548C99.9723 22.5051 99.0737 23.4615 97.9632 24.1066C96.8075 24.8006 94.9252 25.1471 93.2426 25.1471C91.5593 25.1472 89.7078 24.8049 88.5624 24.1204ZM95.8888 21.3706C96.4867 20.5218 96.786 18.8953 96.786 17.6173C96.786 16.3399 96.6333 14.975 95.8888 13.8319C95.604 13.3844 95.2102 13.0172 94.7445 12.765C94.2788 12.5129 93.7567 12.384 93.2275 12.3908C92.7022 12.3933 92.1857 12.5263 91.724 12.7777C91.2623 13.0292 90.8698 13.3913 90.5814 13.8319C89.9931 14.6627 89.6993 16.3399 89.6993 17.6173C89.6993 18.8953 89.9983 20.5218 90.5966 21.3706C91.1945 22.2195 92.0718 22.8617 93.2275 22.8617C94.4032 22.8616 95.2904 22.2194 95.8888 21.3705V21.3706Z" fill="#DC2323"/>
<path d="M117.351 12.1918C115.951 10.6117 114.57 10.2037 112.793 10.1064C111.662 10.0438 110.538 10.324 109.567 10.9106C108.916 11.2989 108.32 11.7753 107.798 12.3264C107.691 12.4389 107.593 12.5593 107.505 12.6867L107.491 12.4714C107.489 12.2011 107.443 11.933 107.355 11.6774C107.192 11.268 106.908 10.9187 106.541 10.677C106.173 10.4353 105.74 10.3128 105.301 10.3263C104.707 10.3263 104.137 10.5631 103.717 10.9846C103.297 11.4061 103.061 11.9777 103.061 12.5737V29.6782C103.061 30.2608 103.286 30.8207 103.69 31.2398C104.093 31.6588 104.643 31.9042 105.223 31.9242C105.804 31.9441 106.369 31.737 106.8 31.3466C107.231 30.9562 107.494 30.4131 107.534 29.8318C107.536 29.8144 107.541 29.7985 107.543 29.7808V22.6322C107.91 23.3245 108.616 23.8964 109.376 24.3603C110.348 24.9582 111.473 25.2577 112.613 25.2219C113.92 25.2075 116.15 24.8027 117.461 23.0687C118.51 21.6802 119.157 19.9173 119.157 17.672C119.157 15.372 118.565 13.5628 117.351 12.1918ZM113.697 21.238C113.116 22.1142 112.233 22.8616 111.05 22.8616C109.887 22.8616 109.01 22.1143 108.418 21.238C107.827 20.3617 107.531 18.8951 107.531 17.672C107.531 16.4673 107.827 14.7696 108.418 13.8933C109.01 13.0171 109.887 12.3906 111.05 12.3906C112.233 12.3906 113.103 13.0213 113.697 13.8797C114.455 14.9749 114.57 16.4398 114.57 17.6447C114.57 18.8862 114.279 20.3618 113.697 21.238Z" fill="#DC2323"/>
<path d="M31.3764 12.6275C31.372 12.4522 31.3563 12.2774 31.3294 12.1041C31.2183 11.5821 30.9256 11.1169 30.5038 10.7917C30.0819 10.4664 29.5585 10.3025 29.0271 10.3292C28.4958 10.3559 27.9913 10.5716 27.604 10.9375C27.2166 11.3033 26.9718 11.7956 26.9133 12.3261C26.9124 12.3388 26.9105 12.3503 26.9096 12.3631C26.9093 12.3671 26.9094 12.3713 26.909 12.3753C26.9033 12.4408 26.899 12.5067 26.899 12.5737C26.899 12.5899 26.9011 12.6056 26.9015 12.6218C26.9015 12.6304 26.9008 12.6381 26.9008 12.6468V22.8955L26.9009 22.9001C26.9007 22.9122 26.8991 22.9238 26.8991 22.9359C26.8991 22.9831 26.9033 23.0293 26.9061 23.0758C26.9408 23.6457 27.1906 24.181 27.6048 24.5726C28.019 24.9642 28.5663 25.1827 29.1355 25.1836C29.7046 25.1846 30.2527 24.9679 30.6681 24.5777C31.0836 24.1875 31.3352 23.6531 31.3718 23.0833C31.3743 23.023 31.3774 22.9634 31.3774 22.9001V22.8955V12.6467C31.3773 12.6401 31.3766 12.6341 31.3764 12.6275Z" fill="#DC2323"/>
<path d="M47.7809 22.9297L47.7427 16.1777C47.704 14.2052 47.2795 12.8129 46.4691 12.0008C45.4271 10.9953 43.9991 10.4538 42.2624 10.4538C40.5258 10.4538 39.0205 11.0339 37.94 12.1555L37.6312 12.4648L37.5584 12.1729L37.5155 12.0008C37.4189 11.6463 37.241 11.3194 36.9959 11.0463L36.9873 11.0368C36.6872 10.7157 36.2995 10.4902 35.8727 10.3884C35.4458 10.2867 34.9984 10.3131 34.5864 10.4645C34.1744 10.6158 33.8158 10.8854 33.5554 11.2397C33.295 11.594 33.1441 12.0173 33.1217 12.4569C33.1197 12.5054 33.1179 12.5544 33.1174 12.6047C33.1172 12.6229 33.1158 12.6397 33.1158 12.6583V22.9457C33.1158 22.9895 33.1186 23.0303 33.1198 23.0727C33.161 23.6473 33.4208 24.1841 33.8455 24.5718C34.2701 24.9596 34.8271 25.1688 35.4012 25.1561C35.9753 25.1434 36.5226 24.9098 36.9297 24.5036C37.3369 24.0974 37.5729 23.5497 37.5888 22.9738L37.5918 22.9741C37.5918 22.9644 37.5926 22.9555 37.5926 22.9457V15.9843C37.6312 15.0174 37.7856 14.3213 38.0557 13.8572C38.3339 13.4154 38.7225 13.0544 39.1829 12.8102C39.6434 12.5659 40.1595 12.4468 40.6801 12.4648C41.7993 12.4648 42.494 12.8516 42.8413 13.5478C43.154 14.4281 43.2981 15.3597 43.2659 16.2937L43.3039 22.8816C43.3034 22.8999 43.3011 22.9176 43.3011 22.9358C43.3011 22.9679 43.3046 22.9991 43.3059 23.0308C43.3301 23.6176 43.5825 24.1716 44.009 24.5739C44.4355 24.9763 45.0021 25.195 45.5874 25.1832C46.1727 25.1714 46.7302 24.9301 47.1402 24.5109C47.5502 24.0917 47.7803 23.528 47.781 22.9407L47.7813 22.9357L47.7809 22.9297Z" fill="#DC2323"/>
<path d="M83.6383 22.8646C83.6386 22.8135 83.6416 22.7658 83.6401 22.7124L83.5871 16.2594C83.5871 14.7261 83.303 13.1073 82.5013 12.1455C81.5353 10.9862 79.9355 10.4109 77.9205 10.3921C76.9452 10.3703 75.9816 10.6081 75.1277 11.0815C74.4991 11.4241 73.9321 11.8701 73.4506 12.4009L73.4542 11.8606V7.19011H73.4527C73.4537 6.89436 73.3964 6.60133 73.2843 6.3278C73.1722 6.05428 73.0073 5.80565 72.7992 5.59618C72.5911 5.3867 72.3438 5.22049 72.0716 5.10709C71.7993 4.99368 71.5074 4.9353 71.2126 4.9353C70.9178 4.9353 70.6259 4.99368 70.3536 5.10709C70.0814 5.22049 69.8341 5.3867 69.626 5.59618C69.4179 5.80565 69.253 6.05428 69.1409 6.3278C69.0288 6.60133 68.9716 6.89436 68.9725 7.19011V22.8616C68.9725 22.8771 68.9739 22.8906 68.9741 22.9059C68.9747 22.9704 68.9774 23.032 68.9805 23.0933C69.02 23.6687 69.2788 24.2068 69.7032 24.5959C70.1276 24.985 70.6849 25.1954 71.2597 25.1833C71.8345 25.1713 72.3826 24.9377 72.7904 24.5312C73.1982 24.1246 73.4343 23.5762 73.4499 22.9996H73.4543V17.0706C73.4543 16.0483 73.4644 14.6942 73.8995 13.9858C74.1144 13.6219 74.409 13.3117 74.7609 13.0787C75.1128 12.8457 75.5129 12.6959 75.931 12.6408C76.9216 12.4681 77.8143 12.6004 78.387 13.2436C79.0604 13.9999 79.1101 15.4515 79.1101 16.51L79.1535 22.9995H79.1644C79.1638 22.9783 79.1619 22.9573 79.1619 22.9359C79.162 23.5061 79.3782 24.0549 79.7667 24.4711C80.1551 24.8873 80.6869 25.1397 81.254 25.1772C81.8211 25.2146 82.3813 25.0342 82.8207 24.6727C83.2602 24.3111 83.5462 23.7954 83.6207 23.2301C83.6251 23.1843 83.6313 23.141 83.6341 23.0931C83.6351 23.0789 83.6356 23.0646 83.6363 23.0503C83.6382 23.0122 83.642 22.9745 83.642 22.9359C83.6419 22.9118 83.6391 22.8885 83.6383 22.8646Z" fill="#DC2323"/>
<path d="M65.4679 15.4046C64.5338 14.7307 63.7776 14.4288 62.184 14.1057L60.3095 13.789C60.0085 13.7276 59.2493 13.6024 59.0259 13.5529C58.154 13.3956 57.3635 12.9397 56.7892 12.263C56.3589 11.7438 56.0875 11.1109 56.0075 10.4405C55.8424 9.0046 56.3165 8.24914 56.7672 7.71229C57.2956 7.08273 57.9341 6.81752 58.9468 6.75136C59.4884 6.71055 60.0294 6.83817 60.4961 7.11684C60.9628 7.39551 61.3326 7.81169 61.5551 8.30875C61.7169 8.68922 61.8482 9.08203 61.9476 9.48345C61.9707 9.60041 62.0031 9.71532 62.0445 9.82707C62.0471 9.83629 62.0498 9.84636 62.0525 9.85554C62.0552 9.86471 62.0606 9.87078 62.0636 9.87953C62.1863 10.1917 62.3772 10.4724 62.6223 10.7009C62.8673 10.9293 63.1603 11.0998 63.4796 11.1997C63.799 11.2997 64.1366 11.3266 64.4676 11.2784C64.7987 11.2302 65.1148 11.1083 65.3927 10.9214C65.6706 10.7346 65.9032 10.4877 66.0735 10.1988C66.2437 9.90988 66.3473 9.58639 66.3765 9.25207C66.4058 8.91775 66.36 8.5811 66.2425 8.26687C66.125 7.95264 65.9388 7.66882 65.6977 7.43626C65.0692 6.69151 64.29 6.08941 63.4117 5.66995C62.1033 5.05713 60.6706 4.7581 59.227 4.79649C57.9261 4.77438 56.6336 5.00892 55.4228 5.48677C54.3791 5.89138 53.4714 6.58516 52.8055 7.4873C52.1653 8.3963 51.8344 9.4882 51.8618 10.6009C51.8618 12.4605 52.6539 13.6597 53.8918 14.4768C55.1293 15.294 57.1245 15.5637 57.7605 15.6604L59.2277 15.8582C60.4818 16.1004 60.7292 16.2533 61.2735 16.6196C61.6738 16.902 62.0079 17.2688 62.2524 17.6942C62.4968 18.1197 62.6458 18.5935 62.6888 19.0827C62.7377 19.7785 62.7542 20.8554 61.89 21.8661C61.6074 22.1858 61.2588 22.4399 60.8685 22.6108C60.4781 22.7817 60.0553 22.8651 59.6295 22.8554C58.8617 22.8959 58.1047 22.6609 57.4938 22.1927C56.6205 21.5355 56.4312 20.1098 56.0983 19.5213C55.9055 19.036 55.5502 18.6333 55.0934 18.3825C54.6366 18.1317 54.107 18.0484 53.5956 18.147C53.0843 18.2456 52.6231 18.5199 52.2916 18.9227C51.96 19.3255 51.7787 19.8317 51.7789 20.3541C51.7789 20.3669 51.7807 20.3794 51.7809 20.3922C51.7879 20.8187 51.9164 21.2343 52.1511 21.5899C52.1713 21.6206 52.1924 21.6504 52.214 21.6799C52.2202 21.6895 52.2254 21.6972 52.232 21.7078C52.9279 22.7833 53.8983 23.6523 55.0422 24.2243C56.4124 24.8855 57.9201 25.2092 59.44 25.1683C60.8216 25.1913 62.1935 24.9325 63.4724 24.4075C64.5814 23.9611 65.5454 23.215 66.2571 22.252C66.9421 21.3303 67.2961 20.2031 67.2616 19.0539C67.2184 17.6081 66.8713 16.417 65.4679 15.4046ZM53.7651 22.5859L52.3841 21.8856L53.5161 22.5424L53.2688 22.4694L53.0052 22.3564L52.566 22.0613" fill="#DC2323"/>
<path d="M26.7438 2.56896C26.883 2.21789 26.9079 1.83168 26.8151 1.46553C26.7223 1.09938 26.5165 0.772036 26.2271 0.530295C26.2201 0.525521 26.2119 0.521147 26.2048 0.516423C26.0087 0.35163 25.7799 0.23065 25.5336 0.161543C25.2873 0.092437 25.0291 0.0767916 24.7763 0.115651C24.5234 0.15451 24.2818 0.24698 24.0674 0.3869C23.853 0.52682 23.6708 0.710975 23.5329 0.927095C23.4577 1.03247 23.393 1.14497 23.3397 1.26299C23.3203 1.31 23.3005 1.35796 23.2809 1.4052C20.0006 9.33696 15.3713 21.4511 15.3713 21.4511C15.3713 21.4511 8.72445 6.75475 7.20272 2.80995C7.0975 2.53888 6.96884 2.27756 6.81819 2.029C6.79684 1.98988 6.77287 1.95247 6.75025 1.91403C6.37645 1.20412 5.77649 0.640216 5.04603 0.312235C4.31557 -0.0157455 3.49669 -0.0889158 2.71995 0.104393C1.94321 0.297702 1.25336 0.746359 0.760388 1.37882C0.26742 2.01128 -0.000270674 2.79112 2.05378e-07 3.59398C2.05378e-07 3.61728 0.00303981 3.63977 0.00346334 3.66294C0.00303981 3.68584 2.05378e-07 3.70808 2.05378e-07 3.7311C0.000298712 4.0792 0.0515951 4.42536 0.152245 4.75849C0.198957 4.88714 0.249806 5.0247 0.305337 5.17224C2.22864 10.284 9.28179 26.3812 10.366 27.987C10.7115 28.518 11.1881 28.9503 11.7494 29.2417C12.3108 29.5332 12.9378 29.6738 13.5694 29.65C15.2511 29.65 16.2691 28.5708 16.7558 27.4463C17.4794 25.7745 25.72 5.30523 26.7503 2.56889H26.7438L26.7438 2.56896Z" fill="#DC2323"/>
</g>
<defs>
<clipPath id="clip0">
<rect width="119" height="32" fill="white"/>
</clipPath>
</defs>
</svg>
