<svg width="1440" height="60" viewBox="0 0 1440 60" fill="none" xmlns="http://www.w3.org/2000/svg">
<g clip-path="url(#clip0_1103_15241)">
<path d="M372.584 34.8393H425.865V-24H372.584V34.8393ZM266.15 34.8393H319.431L322.77 -24L259.874 -24L266.15 34.8393ZM159.715 34.8393H212.997L220.169 -24H159.715V34.8393ZM53.2809 34.8393H106.562L118.345 -24H53.2809V34.8393Z" fill="url(#paint0_linear_1103_15241)"/>
<path d="M319.303 34.8392H372.584L374.434 -25.8497L322.307 -24L319.303 34.8392ZM212.868 34.8392H266.15L272.425 -24H219.4L212.868 34.8392ZM106.434 34.8392H159.715L168.681 -24H117.961L106.434 34.8392ZM-0.000427306 34.8392H53.2808L68.7783 -24H19.9799L-0.000427306 34.8392Z" fill="url(#paint1_linear_1103_15241)"/>
<path d="M372.584 34.8392H425.865V44.4415C425.865 51.5921 414.21 59.8664 399.609 59.8664C384.88 59.8664 372.712 51.5921 372.712 44.4415V34.8392H372.584ZM266.15 34.8392H319.431V44.4415C319.431 51.5921 307.007 59.8664 292.278 59.8664C277.421 59.8664 266.278 51.5921 266.278 44.4415V34.8392H266.15ZM159.715 34.8392H212.996V44.3393C212.996 51.3878 200.957 59.8664 186.484 59.8664C172.011 59.8664 159.715 51.4899 159.715 44.3393V34.8392ZM53.2809 34.8392H106.562V43.7264C106.562 50.7749 94.7788 59.7642 80.3058 59.7642C65.7047 59.7642 53.2809 50.6727 53.2809 43.7264V34.8392Z" fill="url(#paint2_linear_1103_15241)"/>
<path d="M319.303 34.8391H372.584V43.9306C372.584 50.8769 360.544 59.7641 345.687 59.7641C330.83 59.7641 319.303 50.7747 319.303 43.9306V34.8391ZM212.868 34.8391H266.15V44.0327C266.15 50.979 254.879 59.7641 240.406 59.7641C225.933 59.7641 212.868 51.0812 212.868 44.0327V34.8391ZM106.434 34.8391H159.715V44.4414C159.715 51.592 148.188 59.8662 133.459 59.8662C118.602 59.8662 106.562 50.8769 106.562 43.7263V34.8391H106.434ZM-0.000369161 34.8391H53.2809V43.7263C53.2809 50.7748 41.4975 59.7641 27.0245 59.7641C12.4234 59.7641 -0.000369161 50.7748 -0.000369161 43.7263V34.8391Z" fill="url(#paint3_linear_1103_15241)"/>
<path d="M533.452 34.8393H480.171V-24H533.452V34.8393ZM639.886 34.8393H586.605V-24H639.886V34.8393ZM746.321 34.8393H693.04L690.478 -24H746.321V34.8393ZM852.755 34.8393H799.474V-24H852.755V34.8393Z" fill="url(#paint4_linear_1103_15241)"/>
<path d="M480.171 34.8393H425.737V-24H480.171V14.1025V34.8393ZM586.734 34.8393H533.452V-24H586.734V34.8393ZM693.168 34.8393H639.887V-24H690.606L693.168 34.8393ZM799.602 34.8393H746.321V-24H799.602V34.8393ZM906.037 34.8393H852.756V-24H906.037V34.8393Z" fill="url(#paint5_linear_1103_15241)"/>
<path d="M533.452 34.8392H480.171V44.4415C480.171 51.5921 491.826 59.8664 506.427 59.8664C521.156 59.8664 533.324 51.5921 533.324 44.4415V34.8392H533.452ZM639.886 34.8392H586.605V44.4415C586.605 51.5921 599.029 59.8664 613.758 59.8664C628.615 59.8664 639.758 51.5921 639.758 44.4415V34.8392H639.886ZM746.321 34.8392H693.04V44.3393C693.04 51.3878 705.079 59.8664 719.552 59.8664C734.025 59.8664 746.321 51.4899 746.321 44.3393V34.8392ZM852.755 34.8392H799.474V43.7264C799.474 50.7749 811.257 59.7642 825.73 59.7642C840.331 59.7642 852.755 50.6727 852.755 43.7264V34.8392Z" fill="url(#paint6_linear_1103_15241)"/>
<path d="M480.171 34.8392H425.737V43.42C425.737 50.4684 439.442 59.7642 453.915 59.7642C468.516 59.7642 480.171 50.4684 480.171 43.42V34.8392ZM586.734 34.8392H533.452V43.9307C533.452 50.877 545.492 59.7642 560.349 59.7642C575.207 59.7642 586.734 50.7749 586.734 43.9307V34.8392V34.8392ZM693.168 34.8392H639.887V44.0329C639.887 50.9792 651.158 59.7642 665.631 59.7642C680.104 59.7642 693.168 51.0813 693.168 44.0329V34.8392ZM799.602 34.8392H746.321V44.4415C746.321 51.5921 757.848 59.8664 772.578 59.8664C787.435 59.8664 799.474 50.877 799.474 43.7264V34.8392H799.602ZM906.037 34.8392H852.756V43.7264C852.756 50.7749 864.539 59.7642 879.012 59.7642C893.613 59.7642 906.037 50.7749 906.037 43.7264V34.8392Z" fill="url(#paint7_linear_1103_15241)"/>
<path d="M959.938 35.5994H906.657V-23.2399H959.938V35.5994ZM1066.37 35.5994H1013.09V-23.2399H1066.37V35.5994ZM1172.81 35.5994H1119.53L1116.96 -23.2399H1172.81V35.5994ZM1279.24 35.5994H1225.96V-23.2399H1279.24V35.5994Z" fill="url(#paint8_linear_1103_15241)"/>
<path d="M1013.22 35.5994H959.938V-23.2399H1013.22V35.5994ZM1119.65 35.5994H1066.37V-23.2399H1117.09L1119.65 35.5994ZM1226.09 35.5994H1172.81V-23.2399H1226.09V35.5994ZM1332.52 35.5994H1279.24V-23.2399H1332.52V35.5994Z" fill="url(#paint9_linear_1103_15241)"/>
<path d="M959.938 35.5995H906.657V45.2017C906.657 52.3523 918.312 60.6266 932.914 60.6266C947.643 60.6266 959.81 52.3523 959.81 45.2017V35.5995H959.938ZM1066.37 35.5995H1013.09V45.2017C1013.09 52.3523 1025.52 60.6266 1040.24 60.6266C1055.1 60.6266 1066.24 52.3523 1066.24 45.2017V35.5995H1066.37ZM1172.81 35.5995H1119.53V45.0996C1119.53 52.148 1131.57 60.6266 1146.04 60.6266C1160.51 60.6266 1172.81 52.2502 1172.81 45.0996V35.5995ZM1279.24 35.5995H1225.96V44.4867C1225.96 51.5351 1237.74 60.5245 1252.22 60.5245C1266.82 60.5245 1279.24 51.433 1279.24 44.4867V35.5995Z" fill="url(#paint10_linear_1103_15241)"/>
<path d="M1013.22 35.5995H959.938V44.691C959.938 51.6373 971.978 60.5245 986.835 60.5245C1001.69 60.5245 1013.22 51.5351 1013.22 44.691V35.5995ZM1119.65 35.5995H1066.37V44.7931C1066.37 51.7394 1077.64 60.5245 1092.12 60.5245C1106.59 60.5245 1119.65 51.8416 1119.65 44.7931V35.5995ZM1226.09 35.5995H1172.81V45.2017C1172.81 52.3523 1184.33 60.6266 1199.06 60.6266C1213.92 60.6266 1225.96 51.6373 1225.96 44.4867V35.5995H1226.09ZM1332.52 35.5995H1279.24V44.4867C1279.24 51.5351 1291.02 60.5245 1305.5 60.5245C1320.1 60.5245 1332.52 51.5351 1332.52 44.4867V35.5995Z" fill="url(#paint11_linear_1103_15241)"/>
<path d="M1067.42 34.8394H1014.13V-23.9999H1067.42V34.8394ZM1173.85 34.8394H1120.57L1114.92 -23.9999H1173.85V34.8394ZM1280.28 34.8394H1227L1217.91 -23.9999H1280.28V34.8394ZM1386.72 34.8394H1333.44L1319.73 -23.9999H1371.99L1386.72 34.8394Z" fill="url(#paint12_linear_1103_15241)"/>
<path d="M1120.7 34.8394H1067.42L1064.51 -23.9999H1116.3L1120.7 34.8394ZM1227.13 34.8394H1173.85L1168.73 -23.9999H1220.22L1227.13 34.8394ZM1333.57 34.8394H1280.28L1270.17 -23.9999H1320.5L1333.57 34.8394ZM1440 34.8394H1386.72L1371.61 -23.9999H1421.56L1440 34.8394Z" fill="url(#paint13_linear_1103_15241)"/>
<path d="M1067.42 34.8392H1014.13V44.4415C1014.13 51.5921 1025.79 59.8664 1040.39 59.8664C1055.12 59.8664 1067.29 51.5921 1067.29 44.4415V34.8392H1067.42ZM1173.85 34.8392H1120.57V44.4415C1120.57 51.5921 1132.99 59.8664 1147.72 59.8664C1162.58 59.8664 1173.72 51.5921 1173.72 44.4415V34.8392H1173.85ZM1280.28 34.8392H1227V44.3393C1227 51.3878 1239.04 59.8664 1253.52 59.8664C1267.99 59.8664 1280.28 51.4899 1280.28 44.3393V34.8392ZM1386.72 34.8392H1333.44V43.7264C1333.44 50.7749 1345.22 59.7642 1359.69 59.7642C1374.3 59.7642 1386.72 50.6727 1386.72 43.7264V34.8392Z" fill="url(#paint14_linear_1103_15241)"/>
<path d="M1120.7 34.8391H1067.42V43.9306C1067.42 50.8769 1079.46 59.7641 1094.31 59.7641C1109.17 59.7641 1120.7 50.7747 1120.7 43.9306V34.8391ZM1227.13 34.8391H1173.85V44.0327C1173.85 50.979 1185.12 59.7641 1199.59 59.7641C1214.07 59.7641 1227.13 51.0812 1227.13 44.0327V34.8391ZM1333.57 34.8391H1280.28V44.4414C1280.28 51.592 1291.81 59.8662 1306.54 59.8662C1321.4 59.8662 1333.44 50.8769 1333.44 43.7263V34.8391H1333.57ZM1440 34.8391H1386.72V43.7263C1386.72 50.7748 1398.5 59.7641 1412.98 59.7641C1427.58 59.7641 1440 50.7748 1440 43.7263V34.8391Z" fill="url(#paint15_linear_1103_15241)"/>
</g>
<defs>
<linearGradient id="paint0_linear_1103_15241" x1="239.515" y1="33.8606" x2="239.515" y2="-18.6247" gradientUnits="userSpaceOnUse">
<stop stop-color="#FFF3F0"/>
<stop offset="0.1041" stop-color="#FFE4DE"/>
<stop offset="0.3116" stop-color="#FFD1CA"/>
<stop offset="0.9247" stop-color="#FFAC9F"/>
</linearGradient>
<linearGradient id="paint1_linear_1103_15241" x1="240.149" y1="34.1824" x2="240.149" y2="-21.9639" gradientUnits="userSpaceOnUse">
<stop stop-color="#FF8F7D"/>
<stop offset="0.1077" stop-color="#EF7762"/>
<stop offset="0.3203" stop-color="#E54527"/>
<stop offset="0.6566" stop-color="#DD0F05"/>
<stop offset="1" stop-color="#BF0900"/>
</linearGradient>
<linearGradient id="paint2_linear_1103_15241" x1="239.515" y1="36.2616" x2="239.515" y2="60.6038" gradientUnits="userSpaceOnUse">
<stop stop-color="#FFF3F0"/>
<stop offset="0.1041" stop-color="#FFE4DE"/>
<stop offset="0.3116" stop-color="#FFD1CA"/>
<stop offset="0.9247" stop-color="#FFAC9F"/>
</linearGradient>
<linearGradient id="paint3_linear_1103_15241" x1="240.149" y1="34.7551" x2="240.149" y2="61.1446" gradientUnits="userSpaceOnUse">
<stop stop-color="#FF8F7D"/>
<stop offset="0.1077" stop-color="#EF7762"/>
<stop offset="0.3462" stop-color="#E54527"/>
<stop offset="0.7255" stop-color="#DD0F05"/>
<stop offset="1" stop-color="#C30900"/>
</linearGradient>
<linearGradient id="paint4_linear_1103_15241" x1="666.521" y1="33.8606" x2="666.521" y2="-18.6247" gradientUnits="userSpaceOnUse">
<stop stop-color="#FFF3F0"/>
<stop offset="0.1041" stop-color="#FFE4DE"/>
<stop offset="0.3116" stop-color="#FFD1CA"/>
<stop offset="0.9247" stop-color="#FFAC9F"/>
</linearGradient>
<linearGradient id="paint5_linear_1103_15241" x1="665.887" y1="34.1824" x2="665.887" y2="-21.9638" gradientUnits="userSpaceOnUse">
<stop stop-color="#FF8F7D"/>
<stop offset="0.1077" stop-color="#EF7762"/>
<stop offset="0.3203" stop-color="#E54527"/>
<stop offset="0.6566" stop-color="#DD0F05"/>
<stop offset="1" stop-color="#BF0900"/>
</linearGradient>
<linearGradient id="paint6_linear_1103_15241" x1="666.521" y1="36.2616" x2="666.521" y2="60.6038" gradientUnits="userSpaceOnUse">
<stop stop-color="#FFF3F0"/>
<stop offset="0.1041" stop-color="#FFE4DE"/>
<stop offset="0.3116" stop-color="#FFD1CA"/>
<stop offset="0.9247" stop-color="#FFAC9F"/>
</linearGradient>
<linearGradient id="paint7_linear_1103_15241" x1="665.887" y1="34.7553" x2="665.887" y2="61.1447" gradientUnits="userSpaceOnUse">
<stop stop-color="#FF8F7D"/>
<stop offset="0.1077" stop-color="#EF7762"/>
<stop offset="0.3462" stop-color="#E54527"/>
<stop offset="0.7255" stop-color="#DD0F05"/>
<stop offset="1" stop-color="#C30900"/>
</linearGradient>
<linearGradient id="paint8_linear_1103_15241" x1="1093.01" y1="34.6207" x2="1093.01" y2="-17.8646" gradientUnits="userSpaceOnUse">
<stop stop-color="#FFF3F0"/>
<stop offset="0.1041" stop-color="#FFE4DE"/>
<stop offset="0.3116" stop-color="#FFD1CA"/>
<stop offset="0.9247" stop-color="#FFAC9F"/>
</linearGradient>
<linearGradient id="paint9_linear_1103_15241" x1="1092.37" y1="34.9426" x2="1092.37" y2="-21.2037" gradientUnits="userSpaceOnUse">
<stop stop-color="#FF8F7D"/>
<stop offset="0.1077" stop-color="#EF7762"/>
<stop offset="0.3203" stop-color="#E54527"/>
<stop offset="0.6566" stop-color="#DD0F05"/>
<stop offset="1" stop-color="#BF0900"/>
</linearGradient>
<linearGradient id="paint10_linear_1103_15241" x1="1093.01" y1="37.0218" x2="1093.01" y2="61.364" gradientUnits="userSpaceOnUse">
<stop stop-color="#FFF3F0"/>
<stop offset="0.1041" stop-color="#FFE4DE"/>
<stop offset="0.3116" stop-color="#FFD1CA"/>
<stop offset="0.9247" stop-color="#FFAC9F"/>
</linearGradient>
<linearGradient id="paint11_linear_1103_15241" x1="1092.37" y1="35.5155" x2="1092.37" y2="61.9049" gradientUnits="userSpaceOnUse">
<stop stop-color="#FF8F7D"/>
<stop offset="0.1077" stop-color="#EF7762"/>
<stop offset="0.3462" stop-color="#E54527"/>
<stop offset="0.7255" stop-color="#DD0F05"/>
<stop offset="1" stop-color="#C30900"/>
</linearGradient>
<linearGradient id="paint12_linear_1103_15241" x1="1200.49" y1="33.8607" x2="1200.49" y2="-18.6246" gradientUnits="userSpaceOnUse">
<stop stop-color="#FFF3F0"/>
<stop offset="0.1041" stop-color="#FFE4DE"/>
<stop offset="0.3116" stop-color="#FFD1CA"/>
<stop offset="0.9247" stop-color="#FFAC9F"/>
</linearGradient>
<linearGradient id="paint13_linear_1103_15241" x1="1199.85" y1="34.1826" x2="1199.85" y2="-21.9637" gradientUnits="userSpaceOnUse">
<stop stop-color="#FF8F7D"/>
<stop offset="0.1077" stop-color="#EF7762"/>
<stop offset="0.3203" stop-color="#E54527"/>
<stop offset="0.6566" stop-color="#DD0F05"/>
<stop offset="1" stop-color="#BF0900"/>
</linearGradient>
<linearGradient id="paint14_linear_1103_15241" x1="1200.48" y1="36.2616" x2="1200.48" y2="60.6038" gradientUnits="userSpaceOnUse">
<stop stop-color="#FFF3F0"/>
<stop offset="0.1041" stop-color="#FFE4DE"/>
<stop offset="0.3116" stop-color="#FFD1CA"/>
<stop offset="0.9247" stop-color="#FFAC9F"/>
</linearGradient>
<linearGradient id="paint15_linear_1103_15241" x1="1199.85" y1="34.7551" x2="1199.85" y2="61.1446" gradientUnits="userSpaceOnUse">
<stop stop-color="#FF8F7D"/>
<stop offset="0.1077" stop-color="#EF7762"/>
<stop offset="0.3462" stop-color="#E54527"/>
<stop offset="0.7255" stop-color="#DD0F05"/>
<stop offset="1" stop-color="#C30900"/>
</linearGradient>
<clipPath id="clip0_1103_15241">
<rect width="1440" height="60" fill="white"/>
</clipPath>
</defs>
</svg>
